<?xml version="1.0" standalone="no"?>
<!DOCTYPE svg PUBLIC "-//W3C//DTD SVG 1.1//EN" "http://www.w3.org/Graphics/SVG/1.1/DTD/svg11.dtd" >
<svg xmlns="http://www.w3.org/2000/svg">
<metadata>
This is a custom SVG webfont generated by Font Squirrel.
Copyright   : nullnamesubstitute
Designer    : Good Apples
</metadata>
<defs>
<font id="HELLODENVERDISPLAYBOLDBold" horiz-adv-x="1228" >
<font-face units-per-em="2048" ascent="1638" descent="-410" />
<missing-glyph horiz-adv-x="614" />
<glyph unicode=" "  horiz-adv-x="614" />
<glyph unicode="&#x09;" horiz-adv-x="614" />
<glyph unicode="&#xa0;" horiz-adv-x="614" />
<glyph unicode="!" d="M473 440v383q0 39 37 23l53 -23q25 -8 25 -37v-229q0 -31 30 -31h41q31 0 31 31v250q0 29 -24 37l-168 71q-25 10 -25 35v453q0 31 31 31h270q31 0 31 -31v-385q0 -39 -35 -25l-55 23q-25 8 -25 37v233q0 31 -31 31h-41q-31 0 -30 -31v-258q0 -29 24 -37l168 -69 q25 -8 25 -37v-445q0 -31 -31 -30h-270q-31 -1 -31 30zM475 120.5q0 63.5 45 108.5q70 70 160 35q35 -14 6 -43l-35 -35q-10 -8 -37 -16q-16 -8 -22 -14q-14 -14 -14 -36t14 -36t36.5 -14t37.5 14q8 8 12 22q8 27 16 37l35 35q29 29 43 -6q35 -92 -35 -160 q-45 -47 -108.5 -47t-108.5 47q-45 45 -45 108.5z" />
<glyph unicode="#" horiz-adv-x="1468" d="M63 401l78 234q10 25 35 24h133q27 0 35 25l18 57q14 35 -24 35h-115q-39 0 -24 35l75 236q8 25 35 24h135q27 0 35 25l47 141q10 25 35 25h242q39 0 24 -35l-174 -533q-14 -35 25 -35h16q39 0 25 -34l-76 -234q-8 -25 -35 -24h-237q-27 0 -35 -25l-10 -35 q-14 -35 24 -35h31q27 0 33 21q6 18 32 18h43q39 0 25 -35l-25 -79q-10 -25 -34 -25h-244q-39 0 -25 35l78 233q10 25 35 25h236q27 0 34 24l13 37q10 35 -27 35h-16q-39 0 -25 35l174 530q14 35 -24 35h-31q-27 0 -35 -24l-45 -142q-8 -25 -35 -24h-133q-25 0 -35 -25 l-10 -35q-14 -35 25 -34h112q39 0 25 -35l-84 -256q-8 -25 -35 -25h-133q-25 0 -35 -24l-12 -37q-10 -35 2 -35q14 0 0 -35l-12 -39q-8 -25 -35 -24h-70q-39 -1 -25 34zM637 207l176 534q14 35 -25 35h-18q-39 0 -25 35l76 236q10 25 35 24h238q25 0 34 25l11 30 q14 35 -25 35h-31q-27 0 -32 -16q-6 -18 -33 -19h-41q-37 0 -27 35l25 76q8 25 35 25h241q39 0 25 -35l-74 -232q-10 -25 -35 -24h-235q-27 0 -35 -25l-10 -35q-14 -35 24 -34h15q39 0 24 -35l-174 -535q-14 -35 25 -35h30q25 0 35 25l47 143q8 25 35 25h137q25 0 35 24 l13 37q10 35 -27 35h-117q-39 0 -24 35l84 256q8 25 34 25h138q25 0 34 24l11 35q14 35 -2.5 35t-1.5 35l12 41q8 25 35 24h71q39 0 25 -35l-76 -235q-10 -25 -35 -25h-137q-27 0 -35 -24l-18 -58q-14 -35 24 -35h117q39 0 25 -34l-76 -234q-10 -25 -35 -24h-139 q-25 0 -35 -25l-47 -145q-8 -25 -35 -25h-241q-39 0 -25 35z" />
<glyph unicode="$" horiz-adv-x="944" d="M51 389v60h350v-60q0 -29 21.5 -50.5t50.5 -21.5t50.5 21.5t21.5 50.5q0 23 -12.5 44.5t-45 52t-50 45t-68.5 53.5l-86 65l157 158q-158 123 -157 237q0 78 56 134.5t134 56.5q61 0 111.5 -37t68.5 -94h115q-31 156 -176 217q-16 8 -53 16l-25 6v150h-84v-150l-22 -6 q-37 -8 -54 -16q-84 -35 -134 -110.5t-50 -166.5q0 -137 149 -270l-83 -84q-37 31 -74 76q-111 129 -111 278q0 127 72 233.5t188 154.5v182h322v-182q119 -47 189.5 -154t70.5 -234v-59h-348v59q0 29 -21.5 50.5t-50.5 21.5t-50.5 -21.5t-21.5 -50.5q0 -37 36 -75.5 t108 -94.5l73 -55l-155 -157q94 -74 127 -111q74 -80 74 -162q0 -78 -56.5 -134t-134.5 -56q-61 0 -111.5 36.5t-70.5 94.5h-115q14 -70 58.5 -126.5t109.5 -86.5q25 -12 53 -19l23 -6v-151h84v147l24 6q20 2 54 15q88 33 140 110.5t52 169.5q0 152 -190 307l84 84 q78 -63 116 -110q109 -129 109 -281q0 -137 -82 -248q-72 -98 -188 -143v-178h-322v186q-104 47 -174 144q-76 110 -76 239z" />
<glyph unicode="&#x26;" horiz-adv-x="1273" d="M51 393q0 119 64 221q33 51 99.5 106.5t139.5 84.5l592 -645v450h158v99h-256v-306l-440 508q-53 59 -54 131q0 78 56.5 133.5t134.5 55.5q61 0 110.5 -36t69.5 -95h113q-20 104 -104.5 172.5t-190.5 68.5q-123 0 -211 -87t-88 -212q0 -102 67 -188q-57 -23 -104 -57 q-82 113 -82 245q0 172 123 295t295 123q170 0 291.5 -118.5t126.5 -288.5v-70h-345v59q0 29 -21.5 49.5t-50 20.5t-50 -20.5t-21.5 -49.5q0 -27 25 -53l233 -270v108h492v-333h-158v-496h-133l-344 379l-258 282q-74 -41 -117 -112.5t-43 -153.5q0 -125 88 -212t211 -87 q63 0 115 23l-84 90q-10 -2 -31 -2q-78 0 -133 55t-55 133q0 90 71 150q68 -74 82 -88q-37 -20 -37 -62q0 -29 21.5 -50t50.5 -21q37 0 57 30l236 -258q-121 -121 -293 -121t-295 124t-123 296z" />
<glyph unicode="(" horiz-adv-x="569" d="M53 748v57q12 313 115 608q8 20 35 21h276q37 0 31 -21l-8 -20q-111 -264 -129 -576q-4 -37 -37 -22l-55 24q-25 10 -23 37q20 233 80 424q10 35 -27 35h-24q-27 0 -35 -27q-68 -223 -80 -463q-2 -27 23 -37l151 -63q25 -8 25 -37q0 -45 2 -57q16 -307 129 -590l2 -6 q14 -35 -25 -35h-276q-27 0 -31 10l-4 10q-100 293 -113 592q-2 18 8.5 25.5t26.5 -0.5l60 -25q23 -10 24 -34q16 -231 78 -435q10 -25 35 -24h24q37 0 27 35q-70 217 -82 456q-2 25 -25 35l-155 66q-25 10 -23 37z" />
<glyph unicode=")" horiz-adv-x="569" d="M59 20l9 21q113 283 129 590q2 12 2 57q0 29 24 37l152 63q25 10 22 37q-16 238 -80 465q-10 25 -34 25h-25q-37 0 -27 -35q59 -190 80 -424q2 -27 -22 -37l-56 -24q-33 -14 -36 22q-18 311 -129 576l-9 20q-6 20 31 21h277q27 0 30 -11l4 -10q100 -291 117 -608v-57 q0 -27 -24 -37l-156 -66q-23 -12 -25 -35q-12 -236 -80 -456q-14 -35 25 -35h25q25 0 34 24q63 217 78 435q2 25 25 34l59 25q16 8 26.5 1t8.5 -26q-12 -299 -113 -592q-8 -20 -34 -20h-277q-37 0 -31 20z" />
<glyph unicode="," horiz-adv-x="409" d="M51 159.5q0 63.5 45 108.5q43 45 109 45q29 0 51 -8q35 -14 6 -43l-35 -35q-16 -16 -18 -16h-4q-23 0 -37 -14q-16 -16 -16 -37t16 -37q14 -14 36.5 -14t37.5 14q8 8 12 22q6 27 18 39l33 33q29 29 43 -6q25 -61 -8 -125l-82 -209q-12 -29 -41 -16l-55 22q-29 12 -19 41 l21 56q12 27 -19 38q-27 10 -49 33q-45 45 -45 108.5z" />
<glyph unicode="." horiz-adv-x="409" d="M51 145.5q0 63.5 45 108.5q70 70 160 35q35 -14 6 -43l-33 -33q-12 -12 -39 -18q-14 -4 -22 -13q-33 -37 0 -73q16 -14 36.5 -14.5t37.5 14.5q8 8 12 20q6 27 18 39l35 35q29 29 43 -6q31 -92 -37 -160q-45 -47 -108.5 -47t-108.5 47q-45 45 -45 108.5z" />
<glyph unicode="0" horiz-adv-x="1024" d="M41 446v543q0 193 139 332t332 139t332 -139t139 -332v-215q0 -39 -35 -24l-57 22q-25 12 -25 37v180q0 145 -104 248q-104 104 -249.5 104t-250.5 -104q-104 -102 -104 -248v-543q0 -147 104 -249q102 -102 249.5 -102.5t250.5 102.5q104 102 104 249v121q0 27 -24 37 l-172 72q-25 8 -25 37v280q-2 47 -39 82t-94 35q-53 0 -91 -36t-40 -85v-540q2 -53 40 -89t91 -36q59 0 96 35.5t37 89.5v137q0 39 37 22l57 -24q25 -10 25 -37v-101q-4 -98 -79 -169.5t-173 -71.5q-96 0 -172 71.5t-78 169.5v543q2 96 78 168t172 72q98 0 173 -72t79 -168 v-198q0 -29 24 -37l127 -54l43 -18q25 -10 25 -37v-199q0 -193 -139 -333t-332 -140t-332 140t-139 333z" />
<glyph unicode="1" horiz-adv-x="868" d="M51 31v272q0 31 31 31h133q31 0 31 -31v-55q0 -31 -31 -31h-14q-31 0 -31 -31v-36q0 -31 31 -31h55q31 0 31 31v819q0 33 -35 26l-78 -20q-35 -10 -35 24v275q0 27 27 33l440 118q35 6 35 -26v-1034q0 -31 31 -31h114q31 0 31 -31v-272q0 -31 -31 -31h-290q-31 0 -31 31 v57q0 31 31 31h172q31 0 30 31v36q0 31 -30 31h-115q-31 0 -31 31v999q0 33 -35 27l-202 -55q-27 -6 -27 -33v-35q0 -33 35 -27l78 21q35 10 35 -25v-1089q0 -31 -31 -31h-293q-31 0 -31 31z" />
<glyph unicode="2" horiz-adv-x="935" d="M51 31v57q0 31 31 31h655q31 0 31 31v55q0 31 -31 31h-655q-31 0 -31 30v47q0 18 12 37l449 608q27 37 27 58q0 29 -20.5 50t-51.5 21q-29 0 -49.5 -21.5t-20.5 -49.5v-29q0 -31 -30 -31h-285q-31 0 -31 31v29q0 174 122 296t294 122q174 0 296 -122t122 -296 q0 -127 -74 -236l-233 -344q-12 -20 -37 -20h-74q-18 0 -24.5 11t3.5 26q174 248 267 393q55 84 55 170q0 125 -88 212t-213 87q-96 0 -175 -57.5t-108 -147.5q-6 -14 1.5 -24.5t23.5 -10.5h53q25 0 37 25q51 106 168 106q78 0 134 -56t56 -134q0 -59 -51 -127l-366 -498 q-12 -14 -7 -25.5t25 -11.5h596q31 0 31 -30v-293q0 -31 -31 -31h-772q-31 0 -31 31z" />
<glyph unicode="3" horiz-adv-x="1015" d="M51 446q0 31 31 31h297q31 0 31 -31q0 -41 28.5 -69.5t69.5 -28.5t69.5 29t28.5 69q0 31 -16 54q-27 45 -82 45q-31 0 -31 30v58q0 31 31 31q127 0 223 84q2 2 8 7t9 7l20 24q78 94 78 218q0 137 -98 239q-55 53 -117 75.5t-123 22.5q-80 0 -150 -34q-53 -27 -90 -64 t-62.5 -85t-25.5 -66h129l6 12q37 66 101 94q41 20 92 21q90 0 152.5 -62.5t62.5 -152.5q0 -102 -78 -168q-61 -49 -137 -50h-57q-31 0 -31 31v57q0 31 31 31h57q41 0 69.5 29t28.5 69.5t-28.5 69.5t-69.5 29t-69.5 -29t-28.5 -69q0 -31 -31 -31h-297q-31 0 -31 31 q0 59 10 100q29 127 123 221q74 76 174 111q72 25 150 24q188 0 323 -135q133 -133 134 -321q0 -86 -27 -159t-60.5 -117t-79.5 -79t-71 -48t-47 -21q10 -14 27 -48q16 -43 16 -86q0 -90 -62.5 -152.5t-152.5 -62.5q-63 0 -117.5 35t-81.5 92h-129q20 -84 88 -151 q98 -98 239.5 -98t240.5 98q98 102 98 239q0 70 -23 123q-8 23 13 41q14 10 38 35l5 4q27 27 41 -6q45 -98 45 -197q0 -188 -134 -321q-137 -137 -323 -137q-190 0 -324 137q-133 133 -133 321z" />
<glyph unicode="4" horiz-adv-x="1173" d="M51 305v262q0 18 12 37l547 809q14 20 39 21h60q31 0 30 -31v-881q0 -31 -30 -30h-414q-18 0 -24.5 10t3.5 26l248 365q12 18 24.5 14t12.5 -26v-125q0 -18 -12 -37l-47 -74q-10 -14 -5 -25.5t25 -11.5h70q31 0 31 31v510q0 23 -12.5 27t-24.5 -15l-402 -596 q-12 -18 -12 -37v-104q0 -31 31 -31h508q31 0 30 -31v-212q0 -31 31 -31h55q31 0 31 31v212q0 31 31 31h86q31 0 31 31v37q0 31 -31 31h-86q-31 0 -31 30v881q0 31 31 31h57q31 0 31 -31v-764q0 -31 31 -31h86q31 0 30 -30v-273q0 -31 -30 -31h-86q-31 0 -31 -30v-213 q0 -31 -31 -31h-293q-31 0 -30 31v213q0 31 -31 30h-508q-31 0 -31 31z" />
<glyph unicode="5" horiz-adv-x="1044" d="M51 440v60q0 31 31 30h276q31 0 31 -28v-31q0 -53 40 -93t93 -40q55 0 94 40t39 93q0 55 -36.5 94t-96.5 39q-27 0 -55 -12q-20 -8 -39 -6l-76 16q-16 2 -24.5 9t-3.5 14l10 12q80 86 188 86q76 0 138.5 -43t87.5 -98q27 -57 26 -111q0 -102 -73.5 -176t-178.5 -74 q-80 0 -144.5 46t-90.5 118q-8 27 -35 27h-43q-37 0 -27 -35q25 -88 90 -156q106 -102 250 -102q147 0 250 102q104 104 105 250q0 156 -109 255t-246 99q-92 0 -171 -45t-128 -125q-16 -23 -41 -16l-63 14q-29 6 -25 35l94 717q4 29 33 29h645q31 0 31 -31v-277 q0 -31 -31 -30h-350q-29 0 -33 -29l-4 -37q-2 -25 -28 -31q-25 -2 -60 -10q-16 -4 -25.5 3t-7.5 24l23 168q4 29 33 28h336q31 0 30 31v41q0 31 -30 31h-424q-29 0 -33 -29l-51 -391q-2 -20 8 -25.5t26 4.5q113 70 246 70q211 0 341 -145.5t130 -327.5q0 -197 -137 -334 t-334 -137q-188 0 -321 127q-138 131 -150 313z" />
<glyph unicode="6" horiz-adv-x="1046" d="M51 473q0 143 80 260l420 680q12 20 37 21h332q18 0 24 -10.5t-4 -26.5l-524 -846q-25 -35 -25 -78q0 -49 31 -86t78 -45q8 -2 24 -2q12 0 37 4q33 10 33 -22v-162q0 -37 35 -27q109 35 179.5 129t70.5 211q0 147 -107 250q-23 23 -43 -6l-22 -37q-14 -20 4 -43 q63 -70 63 -164q0 -109 -80 -184q-14 -14 -26.5 -8t-12.5 26v166q0 45 -27.5 80t-68.5 45q-33 12 -18 37l18 29l135 219q12 25 41 12q119 -61 189.5 -171t70.5 -251q0 -197 -137 -334q-127 -127 -334 -139h-22q-31 4 -31 33v164l-2 30h-4q-84 23 -138.5 91.5t-54.5 154.5 q0 29 8.5 59.5t16.5 45.5l8 16l424 684q10 16 4 26.5t-24 10.5h-56q-25 0 -37 -21l-393 -635q-53 -84 -53 -186q0 -109 58.5 -198t156.5 -130q25 -10 25 -34v-60q0 -16 -10.5 -24.5t-24.5 -1.5q-104 35 -185 114q-139 135 -139 334z" />
<glyph unicode="7" horiz-adv-x="1079" d="M43 1126v277q0 31 31 31h686q39 0 24 -35l-471 -1245q-14 -35 25 -35h61q25 0 37 24l484 1266q12 25 36 25h56q39 0 24 -35l-528 -1374q-12 -25 -37 -25h-301q-39 0 -25 35l471 1245q14 35 -24 35h-402q-31 0 -30 -31v-39q0 -31 30 -31h302q39 0 24 -34l-22 -60 q-10 -25 -35 -24h-385q-31 -1 -31 30z" />
<glyph unicode="8" horiz-adv-x="940" d="M51 393q0 168 123 295l297 260l37 31q18 14 24 27q8 16 9 34q0 31 -20.5 51.5t-51.5 20.5q-29 0 -49.5 -20.5t-20.5 -51.5q0 -18 7 -30q12 -27 -5 -41l-45 -39q-25 -20 -43 4q-33 49 -32 106q0 78 55 134.5t133 56.5t134 -56.5t56 -134.5q0 -74 -55 -133l-348 -305 q-86 -86 -86 -209q0 -125 88 -213t211 -88q125 0 213 88t88 213q0 29 -6 58q-4 16 -15.5 20t-25.5 -8l-47 -41q-16 -14 -17 -21v-8q0 -78 -56 -134t-134 -56t-133 56t-55 134q0 74 55 133l348 305q86 86 86 209q0 125 -88 213t-213 88q-123 0 -211 -88t-88 -213 q0 -98 61 -182q16 -23 -4 -43l-43 -37q-23 -23 -43 2q-90 115 -90 260q0 174 123 297t295 123q174 0 297 -123t123 -297q0 -168 -123 -295l-348 -303q-18 -20 -19 -49q0 -31 20.5 -51t49.5 -20q31 0 51.5 20t20.5 51q0 18 -6 31q-12 27 4 41l217 188q25 25 43 -2 q90 -111 90 -258q0 -174 -123 -297t-297 -123q-172 0 -295 123t-123 297z" />
<glyph unicode="9" d="M236 961q0 -193 137 -334q53 -53 123 -88q29 -12 41 12l135 217l16 27q16 27 -16 39q-41 12 -69 46.5t-28 80.5v165q0 20 -11 26.5t-27 -7.5q-80 -76 -80 -184q0 -94 63 -164q18 -23 4 -43l-22 -37q-20 -29 -43 -6q-106 102 -107 250q0 117 72 211t180 126q14 4 24.5 -3 t8.5 -23v-162q0 -33 33 -23q25 4 37 5q49 0 91 -36t42 -98q0 -43 -25 -77l-526 -844q-20 -35 20 -39h332q25 0 37 20l422 680q80 117 80 260q0 197 -138 334q-80 80 -184 115q-14 6 -24.5 -2t-10.5 -25v-59q0 -27 25 -35q98 -41 155.5 -129t57.5 -199q0 -102 -53 -186 l-396 -635q-12 -23 -37 -18h-55q-18 0 -24.5 10t4.5 27l426 682q33 55 32 120q0 80 -47 144.5t-123 93.5q-25 8 -26 35v168q0 31 -27 33h-26q-205 -8 -334 -138q-139 -134 -139 -333z" />
<glyph unicode=";" horiz-adv-x="409" d="M59 621q14 35 43 6l35 -35q12 -10 19 -37q4 -14 12 -23q37 -33 74 0q33 37 0 74q-8 8 -23 12q-27 6 -39 19l-35 35q-27 29 9 43q92 31 159 -37q45 -45 45 -108.5t-45 -108.5t-108.5 -45t-108.5 45q-68 68 -37 160z" />
<glyph unicode="?" d="M453 1026v29q0 170 119.5 290.5t289.5 120.5t291 -120.5t121 -290.5q0 -145 -107 -271q-25 -31 -61 -67q-20 -20 -43 0l-39 39q-23 23 0 43q133 117 133 256q0 123 -86 209t-209 86q-94 0 -173 -56.5t-107 -144.5q-10 -35 26 -35h51q25 0 37 25q51 102 166 102 q78 0 132.5 -54t54.5 -132q0 -109 -154 -232q-12 -8 12 -32l111 -115q16 -16 16 -39v-188q0 -31 -30 -31h-236q-31 0 -31 31v256q0 20 11.5 26t25.5 -10l49 -51q16 -16 17 -39v-68q0 -31 30 -31h31q31 0 31 31v66q0 23 -17 39l-155 157q-20 23 4 45q25 16 29 21 q70 53 105.5 91t35.5 73q0 29 -21.5 50t-50 21t-49 -21.5t-20.5 -49.5v-27q0 -31 -31 -31h-279q-30 0 -30 29zM737 135.5q0 63.5 45 108.5q68 68 160 37q35 -14 6 -43l-35 -35q-12 -12 -39 -19q-12 -4 -20 -12q-14 -16 -14 -36.5t14 -37.5q14 -14 35.5 -14t36.5 14 q8 8 12 23q6 27 18 39l35 35q29 29 43 -7q31 -94 -35 -161q-45 -45 -108.5 -45t-108.5 45t-45 108.5z" />
<glyph unicode="A" horiz-adv-x="1392" d="M63 35l451 1374q10 25 35 25h57q39 0 25 -35l-408 -1245q-14 -35 25 -35h41q27 0 35 24l415 1266q10 25 35 25h68q27 0 35 -25l452 -1374q4 -9 4 -16q0 -19 -28 -19h-295q-27 0 -35 25l-101 309q-10 25 -34 24h-228q-37 0 -26 35l86 266q8 25 35 25h16q39 0 25 35l-23 65 q-6 20 0 41l35 107q4 14 11 19t15.5 0t12.5 -19l108 -332q14 -35 -24 -35h-90q-27 0 -35 -24l-10 -29q-14 -35 24 -35h152q27 0 34 -24l101 -310q10 -25 35 -24h51q39 0 24 35l-340 1038q-8 20 -20 20t-21 -20l-382 -1167q-8 -25 -35 -25h-283q-28 0 -28 19q-1 7 3 16z" />
<glyph unicode="B" horiz-adv-x="1083" d="M51 31v1372q0 31 31 31h483q156 0 271.5 -118t115.5 -275.5t-110 -272.5q-25 -25 2 -41q86 -51 137 -141t51 -193q0 -160 -116.5 -276.5t-276.5 -116.5h-334q-31 0 -31 31v278q0 31 31 31h334q23 0 38 15.5t15 37.5q0 20 -16.5 38t-36.5 18h-334q-31 0 -31 30v477 q0 31 31 31h256q20 0 36.5 16.5t16.5 36.5q0 23 -16 39.5t-37 16.5h-256q-31 0 -31 30v58q0 31 31 30h256q68 0 119 -53t51 -120.5t-51 -119t-119 -51.5h-139q-31 0 -31 -30v-244q0 -31 31 -31h217q68 0 119 -52t51 -119.5t-51 -120t-119 -52.5h-217q-31 0 -31 -31v-40 q0 -31 31 -31h217q115 0 192 80q82 80 82 194.5t-82 194.5q-78 78 -229 78h-24q-31 0 -31 30v62q0 31 26 30h27q45 0 79 11.5t44 18.5t31 28q82 82 82 194.5t-82 194.5q-78 80 -193 80h-360q-31 0 -31 -31v-1253q0 -31 -31 -31h-57q-31 0 -31 31z" />
<glyph unicode="C" horiz-adv-x="1064" d="M41 459v139q0 39 37 23l57 -25q23 -10 23 -35v-102q0 -150 108 -258q102 -104 256 -104.5t256 104.5q76 72 96 166q6 33 -28 32h-49q-27 0 -35 -26q-27 -74 -93.5 -122t-146.5 -48q-102 0 -179 76.5t-77 179.5v116q0 25 -22 35l-181 80q-23 10 -22 35v256 q0 197 142.5 339t338.5 142q199 0 340.5 -133t141.5 -328v-49q0 -31 -31 -30h-283q-31 0 -31 30v29q0 55 -39.5 96t-97 41t-97.5 -41t-40 -96v-209q0 -39 -37 -22l-59 28q-23 8 -23 35v168q0 102 76 179t180 77q80 0 146.5 -49t93.5 -123q8 -25 35 -25h49q35 0 28 33 q-23 92 -96 164q-102 106 -255.5 106t-256.5 -106q-109 -109 -108 -256v-180q0 -25 22 -35l182 -82q23 -10 23 -35v-190q0 -57 40 -97t97.5 -40t97 39.5t39.5 95.5v28q0 31 31 31h283q31 0 31 -29v-28q0 -199 -142.5 -342.5t-339 -143.5t-339 143.5t-142.5 342.5z" />
<glyph unicode="D" horiz-adv-x="1013" d="M41 31v1372q0 31 31 31h55q31 0 31 -31v-1253q0 -31 30 -31h314q147 0 250 102q104 102 104 250v492q0 147 -104 249q-102 102 -250 103h-86q-31 0 -31 -31v-905q0 -31 31 -31h67q59 0 102.5 43t43.5 105v440q0 61 -43 104t-103 43h-10q-31 0 -31 31v57q0 31 21 31h20 q106 0 185.5 -79t79.5 -187v-440q0 -106 -79 -186.5t-186 -80.5h-186q-31 0 -31 31v1143q0 31 31 31h205q193 0 332 -139.5t139 -331.5v-492q0 -193 -139.5 -332t-331.5 -139h-430q-31 0 -31 31z" />
<glyph unicode="E" horiz-adv-x="890" d="M39 31v442q0 31 31 31h55q31 0 31 -31v-326q0 -31 30 -30h519q31 0 30 30v52q0 31 -30 30h-412q-31 0 -31 31v275q0 31 -31 30h-161q-31 0 -31 31v807q0 31 31 31h751q31 0 31 -31v-289q0 -31 -31 -31h-411q-31 0 -31 -30v-121q0 -31 31 -31h295q31 0 30 -31v-274 q0 -31 -30 -31h-234q-31 0 -31 31v55q0 31 31 31h117q31 0 30 31v41q0 31 -30 30h-295q-31 0 -31 31v361q0 31 31 30h412q31 0 30 31v49q0 31 -30 31h-519q-31 0 -30 -31v-573q0 -31 30 -31h162q31 0 31 -31v-268q0 -31 31 -31h411q31 0 31 -30v-291q0 -31 -31 -31h-751 q-31 0 -31 31z" />
<glyph unicode="F" horiz-adv-x="915" d="M51 29v622q0 31 31 31h518q31 0 31 31v41q0 31 -31 30h-295q-31 0 -31 31v373q0 31 31 31h412q31 0 31 30v37q0 31 -31 31h-518q-31 0 -31 -31v-512q0 -31 -31 -31h-55q-31 0 -31 31v629q0 31 31 31h752q31 0 30 -31v-275q0 -31 -30 -30h-412q-31 0 -31 -31v-135 q0 -31 31 -31h295q31 0 31 -31v-274q0 -31 -31 -31h-518q-31 0 -31 -30v-388q0 -31 31 -30h45q31 0 30 30v326q0 31 31 31h55q31 0 31 -31v-444q0 -31 -31 -31h-278q-31 0 -31 31z" />
<glyph unicode="G" horiz-adv-x="1069" d="M51 459v137q0 39 35 25l57 -25q25 -10 25 -37v-100q0 -147 111 -262q104 -104 255.5 -104.5t256.5 104.5q111 115 110 262v213q0 31 -31 30h-178q-31 0 -30 -30v-41q0 -31 30 -31h66q31 0 30 -31v-110q0 -104 -75.5 -182t-178 -78t-178 77.5t-75.5 182.5v114q0 25 -23 35 l-184 78q-23 10 -23 35v256q0 197 144.5 340t339 143t339 -143t144.5 -340v-25q0 -31 -31 -30h-285q-31 0 -30 28v27q0 57 -41 97t-96.5 40t-96.5 -40t-41 -97v-207q0 -39 -37 -22l-57 26q-23 10 -22 35v168q0 102 75.5 181t178.5 79q78 0 145.5 -49t93.5 -123q8 -27 35 -27 h51q37 0 27 33q-25 94 -96 166q-106 106 -256 106t-256 -106q-111 -115 -111 -260v-178q0 -25 22 -35l185 -84q23 -10 22 -35v-186q0 -57 41 -97t96.5 -40t96.5 39.5t41 97.5q0 25 -31 24h-66q-31 0 -30 31v277q0 31 30 30h412q31 0 31 -30v-332q0 -197 -144.5 -341.5 t-339 -144.5t-339 144.5t-144.5 341.5z" />
<glyph unicode="H" horiz-adv-x="1097" d="M51 31v1372q0 31 31 31h295q31 0 31 -31v-471q0 -31 -31 -31h-55q-31 0 -31 31v354q0 31 -31 31h-55q-31 0 -31 -31v-1139q0 -31 31 -30h55q31 0 31 30v662q0 31 31 31h337q31 0 31 30v533q0 31 31 31h295q31 0 31 -31v-1372q0 -31 -31 -31h-295q-33 0 -29 31v442 q0 31 -30 31h-162q-31 0 -31 31v61q0 31 31 31h278q31 0 31 -31v-449q0 -31 31 -30h53q31 0 31 30v1139q0 31 -31 31h-53q-31 0 -31 -31v-532q0 -31 -31 -31h-340q-31 0 -30 -31v-661q0 -31 -31 -31h-295q-31 0 -31 31z" />
<glyph unicode="I" horiz-adv-x="884" d="M51 31v284q0 31 31 31h151q31 0 31 31v803q0 31 31 30h381q31 0 31 31v45q0 31 -31 31h-467q-31 0 -31 -31v-45q0 -31 12.5 -31t12.5 -30v-62q0 -31 -31 -31h-80q-31 0 -31 31v285q0 31 31 31h701q31 0 30 -31v-285q0 -31 -30 -31h-381q-31 0 -31 -30v-803q0 -31 -31 -31 h-151q-31 0 -31 -30v-46q0 -31 31 -30h487q31 0 31 30v46q0 31 -31 30h-151q-31 0 -31 31v741q0 31 31 31h55q31 0 31 -31v-618q0 -31 30 -31h152q31 0 31 -31v-284q0 -31 -31 -31h-721q-31 0 -31 31z" />
<glyph unicode="J" horiz-adv-x="1122" d="M51 483v172q0 31 31 31h309q31 0 31 -31v-172q0 -57 41 -97t98 -40q23 0 41 6q35 10 35 -22v-191q0 -37 35 -26q31 10 39 14q74 33 123 84q51 49 84 123q31 72 30 149v803q0 31 -30 31h-66q-31 0 -31 -31v-823q-6 -102 -86 -172q-14 -14 -25.5 -8t-11.5 26v1100 q0 31 31 31h311q31 0 31 -31v-926q0 -211 -149.5 -360.5t-360.5 -149.5h-18q-29 4 -29 33v195q0 27 -27 32q-76 23 -127 85.5t-61 142.5v71q0 31 -31 31h-63q-31 0 -31 -31v-49q0 -78 31 -149.5t82 -122.5t123 -84q12 -4 16 -6q27 -8 27 -35v-66q0 -37 -35 -26 q-127 39 -217 129q-150 149 -150 360z" />
<glyph unicode="K" horiz-adv-x="1097" d="M51 31v1372q0 31 31 31h293q31 0 31 -31v-422q0 -20 -11 -39l-71 -131q-10 -20 -23.5 -17t-13.5 25v465q0 31 -31 31h-55q-31 0 -31 -31v-1134q0 -31 31 -31h55q31 0 31 31v450q0 20 10 39l420 772q12 23 37 23h305q16 0 22 -11q3 -4 3 -10q0 -7 -5 -16l-477 -881 q-12 -20 0 -41l180 -334q12 -23 37 -22h45q16 0 22.5 10t-1.5 27l-195 358q-12 20 0 41l33 61q10 16 21.5 16.5t19.5 -16.5l315 -579q5 -9 5 -17q0 -6 -3 -10q-6 -10 -22 -10h-309q-25 0 -37 23l-242 452q-12 20 0 41l414 762q8 16 2 26.5t-23 10.5h-45q-25 0 -37 -23 l-366 -678q-10 -18 -10 -39v-544q0 -31 -31 -31h-293q-31 0 -31 31z" />
<glyph unicode="L" horiz-adv-x="1017" d="M51 31v1372q0 31 31 31h295q31 0 31 -31v-1256q0 -31 30 -30h381q31 0 31 30v37q0 31 -31 31h-319q-31 0 -31 31v59q0 31 31 31h436q31 0 31 -31v-274q0 -31 -31 -31h-614q-31 0 -31 31v1255q0 31 -31 31h-61q-31 0 -31 -31v-1255q0 -31 -31 -31h-55q-31 0 -31 31z" />
<glyph unicode="M" horiz-adv-x="1347" d="M51 31v1372q0 31 31 31h303q27 0 35 -23l213 -426q8 -20 0 -41l-35 -67q-8 -16 -20.5 -16.5t-20.5 16.5l-209 415q-8 23 -35 23h-112q-31 0 -31 -31v-1134q0 -31 31 -31h45q31 0 30 31v972q0 14 6.5 21.5t15.5 4.5t15 -18l217 -436q8 -16 20.5 -16t20.5 16l363 717 q8 23 35 23h297q31 0 30 -31v-1372q0 -31 -30 -31h-283q-31 0 -31 31v598q0 25 -13 27.5t-24 -17.5l-229 -455q-8 -16 -20.5 -16t-20.5 18l-31 62q-8 20 0 41l420 837q6 14 15.5 17.5t15.5 -3.5t6 -22v-968q0 -31 31 -31h45q31 0 31 31v1134q0 31 -31 31h-113q-27 0 -35 -23 l-428 -854q-8 -16 -20 -16t-21 16l-98 197q-6 14 -15 17t-15.5 -4t-6.5 -21v-596q0 -31 -30 -31h-283q-31 0 -31 31z" />
<glyph unicode="N" horiz-adv-x="1153" d="M51 31v1372q0 31 31 31h57q31 0 31 -31v-1253q0 -31 31 -31h45q31 0 30 31v1253q0 31 31 31h72q27 0 35 -23l307 -614q6 -14 15 -17.5t15.5 4t6.5 21.5v598q0 31 30 31h283q31 0 31 -31v-1372q0 -31 -31 -31h-297q-27 0 -35 23l-274 546q-8 18 -8 39v146q0 14 6 21t15 4 t16 -17l311 -621q8 -23 35 -22h112q31 0 31 31v1134q0 31 -31 31h-45q-31 0 -30 -31v-965q0 -14 -6.5 -21t-15.5 -4t-15 17l-408 815q-6 14 -15 17.5t-15.5 -3.5t-6.5 -22v-1087q0 -31 -30 -31h-283q-31 0 -31 31z" />
<glyph unicode="O" horiz-adv-x="1064" d="M51 457v139q0 39 37 22l57 -24q23 -10 23 -35v-102q0 -150 108 -258q100 -104 256 -104.5t256 104.5q109 109 109 258v522q0 147 -109 256q-102 106 -255.5 106t-256.5 -106q-109 -109 -108 -256v-180q0 -25 22 -35l183 -82q23 -10 22 -35v-190q0 -57 40 -97.5 t97.5 -40.5t97.5 40t40 98v522q0 55 -40 96t-97.5 41t-97.5 -41t-40 -96v-209q0 -39 -37 -22l-59 28q-23 8 -23 35v168q0 102 76 179t180.5 77t180 -77t75.5 -179v-524q0 -100 -76.5 -177t-179 -77t-179.5 76.5t-77 179.5v116q0 25 -22 35l-180 80q-23 10 -23 35v256 q0 197 142.5 339t339 142t339 -142t142.5 -339v-524q0 -197 -142.5 -340.5t-339 -143.5t-339 143.5t-142.5 342.5z" />
<glyph unicode="P" horiz-adv-x="976" d="M51 31v1372q0 31 31 31h407q176 0 306.5 -130t130.5 -307q0 -178 -130 -308t-307 -130q-27 0 -26 31v55q0 31 14 31h12q131 0 224 96q96 92 96 225q0 131 -96 224q-92 96 -224 96h-290q-31 0 -31 -31v-1139q0 -31 31 -30h51q31 0 31 30v734q0 31 30 30h178 q37 0 61.5 23.5t24.5 62.5q0 37 -24.5 61.5t-61.5 24.5h-178q-31 0 -30 31v62q0 33 30 28h178q82 0 145.5 -63.5t63.5 -143.5q0 -82 -63.5 -145.5t-145.5 -63.5h-57q-31 0 -31 -30v-727q0 -31 -30 -31h-289q-31 0 -31 31z" />
<glyph unicode="Q" horiz-adv-x="1234" d="M51 436v522q0 203 148 355q147 147 354 147t354.5 -147.5t147.5 -354.5v-522q-12 -215 -181 -356q-37 -29 -55 -41q-37 -20 -39 -23q-33 -16 -14 -34l4 -5q16 -16 39 -16h33q39 2 37 16q-14 14 10 37q8 6 24.5 20.5t22.5 20.5q25 20 43 -2l168 -178q11 -11 11 -20 q0 -16 -25 -17h-383q-23 0 -37 17l-88 94q-18 18 -9 41l41 94q8 20 31 27q37 16 55 26q25 14 50 35q20 16 28 27q111 111 111 268v491q0 156 -111 267q-113 113 -268.5 112.5t-267.5 -112.5q-111 -111 -111 -267v-493q0 -156 111 -266q66 -66 153 -95q29 -6 37 21l35 78 l39 86l8 20q8 12 14 15l9 2q37 6 67 32q49 43 49 109v491q0 59 -42 101.5t-101 42.5q-57 0 -100 -43t-43 -101v-491q0 -78 65 -121q25 -18 14 -41l-24 -57q-12 -31 -41 -15q-61 35 -99 97.5t-38 136.5v491q0 109 77.5 188t188.5 79t188.5 -79t75.5 -188v-522 q-8 -68 -47 -124t-98 -87q-20 -8 -29 -28l-94 -209q-8 -25 -21 -25l-12 2q-45 4 -65 10q-174 35 -285 172q-103 123 -115 289zM545 283l8 18l2 4z" />
<glyph unicode="R" horiz-adv-x="1153" d="M51 31v1372q0 31 31 31h483q178 0 307 -130t129 -307q0 -78 -26 -155q-78 -211 -316 -273q-2 -2 -6 -5t-9 -13t-1 -19l172 -393q10 -23 35 -22h49q39 0 23 37l-162 352q-12 27 14 41l47 26q29 12 41 -14l223 -522q5 -11 5 -19q0 -18 -27 -18h-289q-25 0 -35 23l-239 555 l-25 63q-10 35 25 35h65q45 0 94 16q125 39 189 150q37 74 37 155q0 133 -92 222q-96 98 -228 98h-366q-31 0 -31 -31v-1139q0 -31 31 -30h55q31 0 31 30v734q0 31 30 30h250q39 0 65.5 25t26.5 61.5t-26.5 61t-65.5 24.5h-248q-31 0 -30 31v62q0 31 30 30h248 q82 0 145.5 -64.5t63.5 -144.5q0 -82 -63.5 -145.5t-145.5 -63.5h-133q-31 0 -31 -30v-727q0 -31 -30 -31h-289q-31 0 -31 31z" />
<glyph unicode="S" horiz-adv-x="940" d="M51 393v27q0 31 31 31h285q31 0 30 -29v-29q0 -29 21.5 -50t52.5 -21q29 0 50.5 21.5t21.5 50t-28 62t-54.5 55t-93.5 73.5l-60 45q-27 20 -4 43l111 112q23 23 -2 43q-131 113 -131 213q0 76 57 133.5t133 57.5q53 0 99 -30t69 -77q12 -25 37 -24h53q37 0 27 35 q-29 90 -109 148t-176 58q-125 0 -213 -88t-88 -213q0 -127 125 -245q20 -20 0 -43l-41 -41q-20 -23 -43 0q-16 16 -49 53q-111 129 -111 276q0 170 125 295t295 125t294 -125t124 -295v-26q0 -31 -31 -31h-285q-31 0 -30 29v28q0 29 -21.5 50.5t-50.5 21.5 q-31 0 -52.5 -21.5t-21.5 -50.5q0 -37 35 -73.5t111 -92.5l47 -34q27 -20 4 -43l-113 -115q-20 -20 4 -43q174 -135 174 -246q0 -76 -57 -133t-131 -57q-53 0 -100 29.5t-70 76.5q-12 25 -37 25h-53q-37 0 -27 -35q29 -90 109 -147.5t178 -57.5q123 0 211 87t88 212 q0 145 -168 281q-23 23 -2 43l43 43q20 20 43 2q72 -68 92 -92q111 -129 111 -277q0 -170 -125 -297t-293 -127q-170 0 -295 127t-125 297z" />
<glyph unicode="T" horiz-adv-x="1163" d="M51 1120v283q0 31 31 31h999q31 0 31 -31v-283q0 -31 -31 -30h-528q-31 0 -31 -31v-909q0 -31 31 -31h57q31 0 31 31v847q0 31 31 31h55q31 0 31 -31v-966q0 -31 -31 -31h-291q-31 0 -30 31v1147q0 31 30 30h527q31 0 30 31v45q0 31 -30 31h-762q-31 0 -31 -31v-45 q0 -31 31 -31h112q31 0 31 -30v-58q0 -31 -31 -30h-231q-31 -1 -31 30z" />
<glyph unicode="U" horiz-adv-x="1122" d="M51 483v920q0 31 31 31h309q31 0 31 -31v-920q0 -57 41 -97t98 -40q23 0 41 6q35 10 35 -22v-191q0 -37 35 -26q31 10 39 14q74 33 123 84q51 49 84 123q31 72 30 149v803q0 31 -30 31h-66q-31 0 -31 -31v-823q-6 -102 -86 -172q-14 -14 -25.5 -8t-11.5 26v1100 q0 31 31 31h311q31 0 31 -31v-926q0 -211 -149.5 -360.5t-360.5 -149.5h-18q-29 4 -29 33v195q0 27 -27 32q-76 23 -127 85.5t-61 142.5v819q0 31 -31 31h-63q-31 0 -31 -31v-797q0 -78 31 -149.5t82 -122.5t123 -84q12 -4 16 -6q27 -8 27 -35v-66q0 -37 -35 -26 q-127 39 -217 129q-150 149 -150 360z" />
<glyph unicode="V" horiz-adv-x="1269" d="M61 1399q-2 8 -2 14q0 21 27 21h293q27 0 35 -27l182 -657q6 -20 0 -41l-35 -125q-4 -14 -11 -19.5t-14.5 -0.5t-11.5 20l-196 704q-8 27 -35 27h-55q-35 0 -25 -35l285 -1018q4 -14 11 -20t14 0t12 20l319 1145q8 27 35 27h295q27 0 27 -21q0 -6 -3 -14l-381 -1372 q-8 -27 -34 -27h-60q-35 0 -24 35l346 1245q10 35 -25 35h-53q-27 0 -35 -27l-350 -1261q-8 -27 -35 -27h-80q-27 0 -35 27z" />
<glyph unicode="W" horiz-adv-x="1579" d="M57 1401q-6 33 29 33h281q29 0 34 -27l84 -440q2 -14 10.5 -20.5t16.5 -0.5t10 21l84 440q6 27 35 27h55q35 0 29 -33l-186 -969q-6 -27 -35 -26.5t-35 26.5l-162 856q-6 27 -35 27h-45q-35 0 -28 -33l219 -1137q6 -27 35 -26h104q29 0 35 26l239 1262q6 27 35 27h72 q29 0 35 -27l82 -440q2 -14 10 -19.5t16.5 -0.5t10.5 20l84 440q6 27 34 27h283q35 0 29 -33l-265 -1374q-6 -27 -34 -27h-297q-29 0 -35 27l-68 356q-6 18 0 37l37 196q2 14 10.5 20.5t16.5 0.5t10 -21l90 -471q6 -27 35 -26h104q29 0 35 26l217 1137q6 33 -28 33h-43 q-29 0 -35 -27l-162 -856q-6 -27 -35 -26h-2q-29 0 -35 26l-116 621q-2 14 -10.5 19t-16.5 0t-10 -19l-197 -1026q-6 -27 -35 -27h-297q-29 0 -34 27z" />
<glyph unicode="X" horiz-adv-x="1189" d="M70 37l385 768q8 16 20 16t21 -16l333 -664q8 -23 35 -22h45q39 0 23 37l-273 540q-8 20 0 41l273 541q16 37 -23 37h-45q-27 0 -35 -23l-215 -424q-8 -16 -20 -16t-21 16l-213 424q-8 23 -34 23h-45q-39 0 -23 -37l172 -344q10 -23 0 -41l-33 -68q-8 -18 -20 -18t-21 18 l-286 572q-5 11 -5 18q0 18 27 19h305q27 0 35 -23l141 -283q8 -16 20.5 -16t20.5 16l144 283q8 23 35 23h305q27 0 27 -19q0 -8 -5 -18l-329 -660q-8 -20 0 -41l329 -659q5 -11 5 -19q0 -18 -27 -18h-305q-27 0 -35 23l-262 524q-8 16 -20.5 16t-20.5 -16l-197 -391 q-16 -37 23 -37h45q27 0 34 22l115 228q8 16 20.5 16t20.5 -16l35 -68q8 -20 0 -41l-119 -237q-8 -23 -35 -23h-305q-27 0 -27 18q0 8 5 19z" />
<glyph unicode="Y" horiz-adv-x="1189" d="M70 1397q-5 11 -5 18q0 18 27 19h305q27 0 35 -23l141 -283q8 -16 20.5 -16t20.5 16l144 283q8 23 35 23h305q27 0 27 -19q0 -8 -5 -18l-336 -668q-8 -18 -8 -39v-233q0 -14 -6 -21.5t-15.5 -4.5t-15.5 18l-77 153q-8 18 -9 39v61q0 20 9 39l268 537q16 37 -23 37h-45 q-27 0 -35 -23l-213 -424q-8 -16 -20 -16t-21 16l-213 424q-8 23 -34 23h-45q-39 0 -23 -37l510 -1018q8 -18 8 -39v-190q0 -31 -31 -31h-303q-31 0 -30 31v465q0 23 13 26.5t24 -16.5l77 -154q8 -18 9 -39v-163q0 -31 30 -31h58q31 0 30 31v53q0 20 -8 39z" />
<glyph unicode="Z" horiz-adv-x="1093" d="M66 35l24 59q8 25 37 25h754q31 0 30 31v55q0 31 -30 31h-693q-39 0 -24 34l321 774q14 35 -24 35h-365q-31 0 -30 31v293q0 31 30 31h908q28 0 28 -19q0 -7 -4 -16l-397 -959q-8 -25 -37 -24h-66q-39 0 -24 35l344 829q14 35 -25 35h-608q-31 0 -31 -31v-55 q0 -31 31 -31h426q39 0 25 -35l-322 -774q-14 -35 25 -35h628q31 0 31 -30v-293q0 -31 -31 -31h-907q-28 0 -28 19q0 7 4 16z" />
<glyph unicode="a" />
<glyph unicode="b" />
<glyph unicode="c" />
<glyph unicode="d" />
<glyph unicode="e" />
<glyph unicode="f" />
<glyph unicode="g" />
<glyph unicode="h" />
<glyph unicode="i" />
<glyph unicode="j" />
<glyph unicode="k" />
<glyph unicode="l" />
<glyph unicode="m" />
<glyph unicode="n" />
<glyph unicode="o" />
<glyph unicode="p" />
<glyph unicode="q" />
<glyph unicode="r" />
<glyph unicode="s" />
<glyph unicode="t" />
<glyph unicode="u" />
<glyph unicode="v" />
<glyph unicode="w" />
<glyph unicode="x" />
<glyph unicode="y" />
<glyph unicode="z" />
<glyph unicode="&#xa2;" horiz-adv-x="935" d="M51 588v74l117 -27v-47q0 -90 51 -165t129 -110q14 -6 41 -14t37 -12v-148h84v148q14 6 39.5 13t36.5 11q66 29 114 87.5t62 129.5h-115q-20 -55 -70.5 -92t-107.5 -37q-76 0 -133 56.5t-57 132.5v43l-150 63l-78 31v127q0 123 73 227.5t183 151.5v180h322v-180 q113 -47 184.5 -152.5t71.5 -232.5v-60h-346v60q0 31 -20.5 51.5t-49.5 20.5q-31 0 -51.5 -20.5t-20.5 -51.5v-78l-118 51v35q4 72 60 126t130 54q57 0 107.5 -36.5t70.5 -92.5h115q-14 72 -61.5 129.5t-112.5 85.5q-14 6 -41 14.5t-37 12.5v147h-84v-147q-14 -6 -40 -13.5 t-36 -11.5q-80 -37 -131 -111.5t-51 -164.5v-43l151 -64l46 -16l32 -14v-121q0 -31 20.5 -51.5t51.5 -20.5q29 0 49.5 20.5t20.5 51.5v59h346v-59q0 -127 -72 -232.5t-184 -152.5v-180h-322v180q-113 47 -184.5 152.5t-71.5 232.5z" />
<glyph unicode="&#xb2;" horiz-adv-x="935" d="M51 31v57q0 31 31 31h655q31 0 31 31v55q0 31 -31 31h-655q-31 0 -31 30v47q0 18 12 37l449 608q27 37 27 58q0 29 -20.5 50t-51.5 21q-29 0 -49.5 -21.5t-20.5 -49.5v-29q0 -31 -30 -31h-285q-31 0 -31 31v29q0 174 122 296t294 122q174 0 296 -122t122 -296 q0 -127 -74 -236l-233 -344q-12 -20 -37 -20h-74q-18 0 -24.5 11t3.5 26q174 248 267 393q55 84 55 170q0 125 -88 212t-213 87q-96 0 -175 -57.5t-108 -147.5q-6 -14 1.5 -24.5t23.5 -10.5h53q25 0 37 25q51 106 168 106q78 0 134 -56t56 -134q0 -59 -51 -127l-366 -498 q-12 -14 -7 -25.5t25 -11.5h596q31 0 31 -30v-293q0 -31 -31 -31h-772q-31 0 -31 31z" />
<glyph unicode="&#xb3;" horiz-adv-x="1015" d="M51 446q0 31 31 31h297q31 0 31 -31q0 -41 28.5 -69.5t69.5 -28.5t69.5 29t28.5 69q0 31 -16 54q-27 45 -82 45q-31 0 -31 30v58q0 31 31 31q127 0 223 84q2 2 8 7t9 7l20 24q78 94 78 218q0 137 -98 239q-55 53 -117 75.5t-123 22.5q-80 0 -150 -34q-53 -27 -90 -64 t-62.5 -85t-25.5 -66h129l6 12q37 66 101 94q41 20 92 21q90 0 152.5 -62.5t62.5 -152.5q0 -102 -78 -168q-61 -49 -137 -50h-57q-31 0 -31 31v57q0 31 31 31h57q41 0 69.5 29t28.5 69.5t-28.5 69.5t-69.5 29t-69.5 -29t-28.5 -69q0 -31 -31 -31h-297q-31 0 -31 31 q0 59 10 100q29 127 123 221q74 76 174 111q72 25 150 24q188 0 323 -135q133 -133 134 -321q0 -86 -27 -159t-60.5 -117t-79.5 -79t-71 -48t-47 -21q10 -14 27 -48q16 -43 16 -86q0 -90 -62.5 -152.5t-152.5 -62.5q-63 0 -117.5 35t-81.5 92h-129q20 -84 88 -151 q98 -98 239.5 -98t240.5 98q98 102 98 239q0 70 -23 123q-8 23 13 41q14 10 38 35l5 4q27 27 41 -6q45 -98 45 -197q0 -188 -134 -321q-137 -137 -323 -137q-190 0 -324 137q-133 133 -133 321z" />
<glyph unicode="&#xb9;" horiz-adv-x="868" d="M51 31v272q0 31 31 31h133q31 0 31 -31v-55q0 -31 -31 -31h-14q-31 0 -31 -31v-36q0 -31 31 -31h55q31 0 31 31v819q0 33 -35 26l-78 -20q-35 -10 -35 24v275q0 27 27 33l440 118q35 6 35 -26v-1034q0 -31 31 -31h114q31 0 31 -31v-272q0 -31 -31 -31h-290q-31 0 -31 31 v57q0 31 31 31h172q31 0 30 31v36q0 31 -30 31h-115q-31 0 -31 31v999q0 33 -35 27l-202 -55q-27 -6 -27 -33v-35q0 -33 35 -27l78 21q35 10 35 -25v-1089q0 -31 -31 -31h-293q-31 0 -31 31z" />
<glyph unicode="&#x152;" horiz-adv-x="1955" d="M1104 31v442q0 31 31 31h55q31 0 31 -31v-326q0 -31 30 -30h519q31 0 30 30v52q0 31 -30 30h-412q-31 0 -31 31v275q0 31 -31 30h-161q-31 0 -31 31v807q0 31 31 31h751q31 0 31 -31v-289q0 -31 -31 -31h-411q-31 0 -31 -30v-121q0 -31 31 -31h295q31 0 30 -31v-274 q0 -31 -30 -31h-234q-31 0 -31 31v55q0 31 31 31h117q31 0 30 31v41q0 31 -30 30h-295q-31 0 -31 31v361q0 31 31 30h412q31 0 30 31v49q0 31 -30 31h-519q-31 0 -30 -31v-573q0 -31 30 -31h162q31 0 31 -31v-268q0 -31 31 -31h411q31 0 31 -30v-291q0 -31 -31 -31h-751 q-31 0 -31 31zM51 457v139q0 39 37 22l57 -24q23 -10 23 -35v-102q0 -150 108 -258q100 -104 256 -104.5t256 104.5q109 109 109 258v522q0 147 -109 256q-102 106 -255.5 106t-256.5 -106q-109 -109 -108 -256v-180q0 -25 22 -35l183 -82q23 -10 22 -35v-190 q0 -57 40 -97.5t97.5 -40.5t97.5 40t40 98v522q0 55 -40 96t-97.5 41t-97.5 -41t-40 -96v-209q0 -39 -37 -22l-59 28q-23 8 -23 35v168q0 102 76 179t180.5 77t180 -77t75.5 -179v-524q0 -100 -76.5 -177t-179 -77t-179.5 76.5t-77 179.5v116q0 25 -22 35l-180 80 q-23 10 -23 35v256q0 197 142.5 339t339 142t339 -142t142.5 -339v-524q0 -197 -142.5 -340.5t-339 -143.5t-339 143.5t-142.5 342.5z" />
<glyph unicode="&#x2000;" horiz-adv-x="806" />
<glyph unicode="&#x2001;" horiz-adv-x="1613" />
<glyph unicode="&#x2002;" horiz-adv-x="806" />
<glyph unicode="&#x2003;" horiz-adv-x="1613" />
<glyph unicode="&#x2004;" horiz-adv-x="536" />
<glyph unicode="&#x2005;" horiz-adv-x="403" />
<glyph unicode="&#x2006;" horiz-adv-x="268" />
<glyph unicode="&#x2007;" horiz-adv-x="268" />
<glyph unicode="&#x2008;" horiz-adv-x="200" />
<glyph unicode="&#x2009;" horiz-adv-x="321" />
<glyph unicode="&#x200a;" horiz-adv-x="88" />
<glyph unicode="&#x2013;" horiz-adv-x="757" d="M84 602v229q0 31 31 31h184q39 0 25 -35l-17 -43q-12 -25 -37 -24h-55q-31 0 -31 -31v-24q0 -31 31 -31h61q27 0 37 24l58 140q10 25 37 24h235q31 0 31 -31v-229q0 -31 -31 -31h-176q-39 0 -23 37l19 43q10 23 35 23h45q31 0 30 31v24q0 31 -30 31h-68q-29 0 -37 -25 l-57 -139q-8 -25 -37 -25h-229q-31 0 -31 31z" />
<glyph unicode="&#x2014;" d="M115 602v229q0 31 30 31h342q39 0 23 -37l-18 -43q-10 -23 -35 -22h-209q-31 0 -31 -31v-24q0 -31 31 -31h213q27 0 37 24l59 140q8 25 37 24h387q31 0 31 -31v-229q0 -31 -31 -31h-326q-39 0 -24 35l18 43q10 25 37 25h193q31 0 30 31v24q0 31 -30 31h-217 q-27 0 -37 -25l-60 -139q-8 -25 -37 -25h-383q-30 0 -30 31z" />
<glyph unicode="&#x2018;" horiz-adv-x="409" d="M61 1098q-25 61 9 125l82 209q12 29 41 16l55 -23q29 -12 18 -41l-20 -55q-12 -27 18 -39q27 -10 49 -33q45 -45 45 -108.5t-45 -108.5q-43 -45 -108 -45q-29 0 -51 9q-35 14 -7 43l35 34q16 16 21 17h2q23 0 37 14q16 14 16 36.5t-16 37.5q-14 14 -37 14t-37 -14 q-8 -8 -12 -23q-6 -27 -19 -39l-33 -32q-29 -29 -43 6z" />
<glyph unicode="&#x2019;" horiz-adv-x="409" d="M51 1306.5q0 63.5 45 108.5q43 45 109 45q29 0 51 -8q35 -14 6 -43l-35 -35q-16 -16 -18 -16h-4q-23 0 -37 -15q-16 -16 -16 -36.5t16 -36.5q14 -14 36.5 -14.5t37.5 14.5q8 8 12 22q6 27 18 39l33 33q29 29 43 -6q25 -61 -8 -125l-82 -209q-12 -29 -41 -16l-55 22 q-29 12 -19 41l21 55q12 27 -19 39q-27 10 -49 33q-45 45 -45 108.5z" />
<glyph unicode="&#x201c;" horiz-adv-x="778" d="M61 1098q-25 61 9 125l82 209q12 29 41 16l55 -23q29 -12 18 -41l-20 -55q-12 -27 18 -39q27 -10 49 -33q45 -45 45 -108.5t-45 -108.5q-43 -45 -108 -45q-29 0 -51 9q-35 14 -7 43l35 34q16 16 21 17h2q23 0 37 14q16 14 16 36.5t-16 37.5q-14 14 -37 14t-37 -14 q-8 -8 -12 -23q-6 -27 -19 -39l-33 -32q-29 -29 -43 6zM430 1098q-25 61 8 125l82 209q12 29 41 16l55 -23q29 -12 19 -41l-21 -55q-12 -27 19 -39q27 -10 49 -33q45 -45 45 -108.5t-45 -108.5q-43 -45 -109 -45q-29 0 -51 9q-35 14 -6 43l35 34q16 16 20 17h2q23 0 37 14 q16 14 16.5 36.5t-16.5 37.5q-14 14 -36.5 14t-36.5 -14q-8 -8 -13 -23q-6 -27 -18 -39l-33 -32q-29 -29 -43 6z" />
<glyph unicode="&#x201d;" horiz-adv-x="778" d="M51 1306.5q0 63.5 45 108.5q43 45 109 45q29 0 51 -8q35 -14 6 -43l-35 -35q-16 -16 -18 -16h-4q-23 0 -37 -15q-16 -16 -16 -36.5t16 -36.5q14 -14 36.5 -14.5t37.5 14.5q8 8 12 22q6 27 18 39l33 33q29 29 43 -6q25 -61 -8 -125l-82 -209q-12 -29 -41 -16l-55 22 q-29 12 -19 41l21 55q12 27 -19 39q-27 10 -49 33q-45 45 -45 108.5zM420 1306.5q0 63.5 45 108.5q43 45 108 45q29 0 52 -8q35 -14 6 -43l-35 -35q-16 -16 -18 -16h-5q-23 0 -36 -15q-16 -16 -16.5 -36.5t16.5 -36.5q14 -14 36.5 -14.5t36.5 14.5q8 8 13 22q6 27 18 39 l33 33q29 29 43 -6q25 -61 -8 -125l-82 -209q-12 -29 -41 -16l-56 22q-29 12 -18 41l20 55q12 27 -18 39q-27 10 -49 33q-45 45 -45 108.5z" />
<glyph unicode="&#x2026;" d="M870 145.5q0 63.5 45 108.5q70 70 160 35q35 -14 6 -43l-33 -33q-12 -12 -39 -18q-14 -4 -22 -13q-33 -37 0 -73q16 -14 36.5 -14.5t37.5 14.5q8 8 12 20q6 27 18 39l35 35q29 29 43 -6q31 -92 -37 -160q-45 -47 -108.5 -47t-108.5 47q-45 45 -45 108.5zM461 145.5 q0 63.5 45 108.5q70 70 160 35q35 -14 6 -43l-33 -33q-12 -12 -39 -18q-14 -4 -22 -13q-33 -37 0 -73q16 -14 36.5 -14.5t37.5 14.5q8 8 12 20q6 27 18 39l35 35q29 29 43 -6q31 -92 -37 -160q-45 -47 -108.5 -47t-108.5 47q-45 45 -45 108.5zM51 145.5q0 63.5 45 108.5 q70 70 160 35q35 -14 6 -43l-33 -33q-12 -12 -39 -18q-14 -4 -22 -13q-33 -37 0 -73q16 -14 36.5 -14.5t37.5 14.5q8 8 12 20q6 27 18 39l35 35q29 29 43 -6q31 -92 -37 -160q-45 -47 -108.5 -47t-108.5 47q-45 45 -45 108.5z" />
<glyph unicode="&#x202f;" horiz-adv-x="321" />
<glyph unicode="&#x205f;" horiz-adv-x="403" />
<glyph unicode="&#x2122;" horiz-adv-x="2510" d="M1214 31v1372q0 31 31 31h303q27 0 35 -23l213 -426q8 -20 0 -41l-35 -67q-8 -16 -20.5 -16.5t-20.5 16.5l-209 415q-8 23 -35 23h-112q-31 0 -31 -31v-1134q0 -31 31 -31h45q31 0 30 31v972q0 14 6.5 21.5t15.5 4.5t15 -18l217 -436q8 -16 20.5 -16t20.5 16l363 717 q8 23 35 23h297q31 0 30 -31v-1372q0 -31 -30 -31h-283q-31 0 -31 31v598q0 25 -13 27.5t-24 -17.5l-229 -455q-8 -16 -20.5 -16t-20.5 18l-31 62q-8 20 0 41l420 837q6 14 15.5 17.5t15.5 -3.5t6 -22v-968q0 -31 31 -31h45q31 0 31 31v1134q0 31 -31 31h-113q-27 0 -35 -23 l-428 -854q-8 -16 -20 -16t-21 16l-98 197q-6 14 -15 17t-15.5 -4t-6.5 -21v-596q0 -31 -30 -31h-283q-31 0 -31 31zM51 1120v283q0 31 31 31h999q31 0 31 -31v-283q0 -31 -31 -30h-528q-31 0 -31 -31v-909q0 -31 31 -31h57q31 0 31 31v847q0 31 31 31h55q31 0 31 -31v-966 q0 -31 -31 -31h-291q-31 0 -30 31v1147q0 31 30 30h527q31 0 30 31v45q0 31 -30 31h-762q-31 0 -31 -31v-45q0 -31 31 -31h112q31 0 31 -30v-58q0 -31 -31 -30h-231q-31 -1 -31 30z" />
<glyph unicode="&#xe000;" horiz-adv-x="500" d="M0 0v0v0v0v0z" />
</font>
</defs>
</svg>
